<svg version="1.1" preserveAspectRatio="none" xmlns="http://www.w3.org/2000/svg" width="500" height="500" viewBox="0 0 500 500"><rect width="100%" height="100%" fill="#B2A8A8" fill-opacity="1"/><svg viewBox="34.6015 -99.9687 494.8981 270.5179" width="333" height="182.02223993181624" x="83.5px" y="158.9889px" xmlns="http://www.w3.org/2000/svg" xmlns:xlink="http://www.w3.org/1999/xlink" preserveAspectRatio="none"><defs></defs><style>.aLgOaV3zRcolors-3 {fill:#C9CCF1;fill-opacity:1;}.aLgOaV3zRcolors-4 {fill:#000000;fill-opacity:1;}.aLgOaV3zRcolors-5 {fill:#050C84;fill-opacity:1;}.aLgOaV3zRcolors-6 {fill:#414DBA;fill-opacity:1;}.aLgOaV3zRcolors-7 {fill:#F1F1F1;fill-opacity:1;}.companyName {fill:#2733A0;fill-opacity:1;}.icon1 {fill:#0B1AAE;fill-opacity:1;}.icon2 {fill:#3342D2;fill-opacity:1;}.icon3 {fill:#5964B8;fill-opacity:1;}.icon3-str {stroke:#5964B8;stroke-opacity:1;}</style><g opacity="1" transform="rotate(0 34.6015 146.5492)">
<svg width="494.8981" height="24" x="34.6015" y="146.5492" version="1.1" preserveAspectRatio="none" viewBox="2.24 -29.2 800.08 38.8">
  <g transform="matrix(1 0 0 1 0 0)" class="companyName"><path id="id-D6z1nYkh33" d="M12.60-0.60Q15.20-0.60 16.64-1.60Q18.08-2.60 18.08-4.48L18.08-4.48Q18.08-6 17.42-7Q16.76-8 15.40-8.84Q14.04-9.68 11.40-10.84L11.40-10.84Q8.04-12.32 6.20-13.46Q4.36-14.60 3.30-16.34Q2.24-18.08 2.24-20.76L2.24-20.76Q2.24-24.60 4.96-26.54Q7.68-28.48 13.60-28.48L13.60-28.48Q16.24-28.48 18.70-27.96Q21.16-27.44 22.84-26.64L22.84-26.64L21.88-20.52L20.80-20.52Q20.04-22.96 19.22-24.40Q18.40-25.84 17-26.62Q15.60-27.40 13.28-27.40L13.28-27.40Q8-27.40 8-23.96L8-23.96Q8-22.56 8.64-21.64Q9.28-20.72 10.56-19.98Q11.84-19.24 14.80-17.80L14.80-17.80L15.60-17.44Q19.32-15.64 21.10-14.52Q22.88-13.40 23.92-11.74Q24.96-10.08 24.96-7.44L24.96-7.44Q24.96-3.52 22.02-1.52Q19.08 0.48 12.80 0.48L12.80 0.48Q10.28 0.48 7.22-0.08Q4.16-0.64 2.48-1.44L2.48-1.44L3.56-8.48L4.60-8.48Q5.12-5.36 6.16-3.64Q7.20-1.92 8.76-1.26Q10.32-0.60 12.60-0.60L12.60-0.60Z M38.36-17.36Q39.88-18.44 41.92-19.18Q43.96-19.92 46.40-19.92L46.40-19.92Q51.36-19.92 52.72-16.96L52.72-16.96Q54.24-18.20 56.42-19.06Q58.60-19.92 61.28-19.92L61.28-19.92Q65-19.92 66.60-18.36Q68.20-16.80 68.20-13.68L68.20-13.68L68.20-1.92Q68.20-1.48 68.38-1.32Q68.56-1.16 69.16-1.04L69.16-1.04L70.56-0.72L70.56 0L62.24 0Q61.16 0 60.68-0.56Q60.20-1.12 60.20-2.24L60.20-2.24L60.20-14.40Q60.20-16.20 59.62-16.96Q59.04-17.72 57.68-17.72L57.68-17.72Q55.52-17.72 53.08-15.96L53.08-15.96Q53.32-14.96 53.32-13.68L53.32-13.68L53.32-1.92Q53.32-1.48 53.50-1.32Q53.68-1.16 54.28-1.04L54.28-1.04L55.68-0.72L55.68 0L47.36 0Q46.28 0 45.80-0.56Q45.32-1.12 45.32-2.24L45.32-2.24L45.32-14.40Q45.32-16.20 44.74-16.96Q44.16-17.72 42.80-17.72L42.80-17.72Q40.68-17.72 38.44-16.12L38.44-16.12L38.44-1.92Q38.44-1.48 38.62-1.30Q38.80-1.12 39.36-1L39.36-1L40.72-0.72L40.72 0L28.08 0L28.08-0.72L29.48-1.04Q30.08-1.16 30.26-1.32Q30.44-1.48 30.44-1.92L30.44-1.92L30.44-17.04Q30.44-17.48 30.26-17.64Q30.08-17.80 29.48-17.92L29.48-17.92L28.08-18.24L28.08-18.96L37.68-20.16L38.36-20.16L38.36-17.36Z M88.16 0Q87.04 0 86.58-0.46Q86.12-0.92 86.12-2L86.12-2L86.12-2.20Q83.44 0.40 78.48 0.40L78.48 0.40Q75.88 0.40 74.42-0.78Q72.96-1.96 72.96-4.44L72.96-4.44Q72.96-6.92 74.42-8.32Q75.88-9.72 78.68-10.32Q81.48-10.92 86.12-11.04L86.12-11.04L86.12-13.96Q86.12-16.20 85.24-17.18Q84.36-18.16 82.16-18.16L82.16-18.16Q80.32-18.16 78.74-17.66Q77.16-17.16 75.52-16.16L75.52-16.16L75-16.92Q76.92-18.28 79.62-19.10Q82.32-19.92 85.68-19.92L85.68-19.92Q90.20-19.92 92.12-18.14Q94.04-16.36 94.04-13L94.04-13L94.04-1.92Q94.04-1.48 94.22-1.32Q94.40-1.16 95-1.04L95-1.04L96.40-0.72L96.40 0L88.16 0ZM82.96-2.12Q84.68-2.12 86.12-3.48L86.12-3.48L86.12-9.96Q83.88-9.80 82.72-9.26Q81.56-8.72 81.14-7.72Q80.72-6.72 80.72-5L80.72-5Q80.72-3.48 81.26-2.80Q81.80-2.12 82.96-2.12L82.96-2.12Z M108.44-16.24Q111.92-19.80 115.52-19.80L115.52-19.80Q116.84-19.80 117.60-19.48L117.60-19.48L117-13.24L116.72-13.24L108.52-15.04L108.52-1.92Q108.52-1.48 108.70-1.30Q108.88-1.12 109.44-1L109.44-1L110.80-0.72L110.80 0L98.16 0L98.16-0.72L99.56-1.04Q100.16-1.16 100.34-1.32Q100.52-1.48 100.52-1.92L100.52-1.92L100.52-17.04Q100.52-17.48 100.34-17.64Q100.16-17.80 99.56-17.92L99.56-17.92L98.16-18.24L98.16-18.96L107.76-20.16L108.44-20.16L108.44-16.24Z M122.28-18.40L119.68-18.40L119.68-19.44Q120.92-19.44 121.52-19.64Q122.12-19.84 122.72-20.36L122.72-20.36L129.84-26.76L130.20-26.76L130.20-19.44L135.36-19.44L135.36-18.40L130.20-18.40L130.20-4.96Q130.20-3.04 130.66-2.26Q131.12-1.48 132.24-1.48L132.24-1.48Q133.12-1.48 133.80-1.84Q134.48-2.20 135.28-3.08L135.28-3.08L135.92-2.32Q133.40 0.48 128.48 0.48L128.48 0.48Q125.16 0.48 123.72-0.92Q122.28-2.32 122.28-5.28L122.28-5.28L122.28-18.40Z M168.48-1.52Q170.68-1.52 172.46-2.24Q174.24-2.96 175.84-4.24L175.84-4.24L176.64-3.36Q174.88-1.72 172.06-0.62Q169.24 0.48 165.84 0.48L165.84 0.48Q159.12 0.48 154.80-3.06Q150.48-6.60 150.48-14.40L150.48-14.40Q150.48-21.64 154.78-25.06Q159.08-28.48 166.04-28.48L166.04-28.48Q168.84-28.48 171.56-27.96Q174.28-27.44 175.84-26.68L175.84-26.68L175.28-19.80L174.16-19.80Q173.04-23.20 171.14-25.26Q169.24-27.32 166.08-27.32L166.08-27.32Q162.44-27.32 160.86-24.34Q159.28-21.36 159.28-15.44L159.28-15.44Q159.28-8.44 161.32-4.98Q163.36-1.52 168.48-1.52L168.48-1.52Z M179.36 0L179.36-0.72L180.76-1.04Q181.36-1.16 181.54-1.32Q181.72-1.48 181.72-1.92L181.72-1.92L181.72-26.08Q181.72-26.52 181.54-26.68Q181.36-26.84 180.76-26.96L180.76-26.96L179.36-27.28L179.36-28L188.96-29.20L189.72-29.20L189.72-1.92Q189.72-1.48 189.90-1.32Q190.08-1.16 190.68-1.04L190.68-1.04L192.08-0.72L192.08 0L179.36 0Z M209.76 0Q208.64 0 208.18-0.46Q207.72-0.92 207.72-2L207.72-2L207.72-2.20Q205.04 0.40 200.08 0.40L200.08 0.40Q197.48 0.40 196.02-0.78Q194.56-1.96 194.56-4.44L194.56-4.44Q194.56-6.92 196.02-8.32Q197.48-9.72 200.28-10.32Q203.08-10.92 207.72-11.04L207.72-11.04L207.72-13.96Q207.72-16.20 206.84-17.18Q205.96-18.16 203.76-18.16L203.76-18.16Q201.92-18.16 200.34-17.66Q198.76-17.16 197.12-16.16L197.12-16.16L196.60-16.92Q198.52-18.28 201.22-19.10Q203.92-19.92 207.28-19.92L207.28-19.92Q211.80-19.92 213.72-18.14Q215.64-16.36 215.64-13L215.64-13L215.64-1.92Q215.64-1.48 215.82-1.32Q216.00-1.16 216.60-1.04L216.60-1.04L218.00-0.72L218.00 0L209.76 0ZM204.56-2.12Q206.28-2.12 207.72-3.48L207.72-3.48L207.72-9.96Q205.48-9.80 204.32-9.26Q203.16-8.72 202.74-7.72Q202.32-6.72 202.32-5L202.32-5Q202.32-3.48 202.86-2.80Q203.40-2.12 204.56-2.12L204.56-2.12Z M229.52-0.48Q231.40-0.48 232.30-1.04Q233.20-1.60 233.20-3L233.20-3Q233.20-3.96 232.72-4.56Q232.24-5.16 231.20-5.64Q230.16-6.12 227.88-6.96L227.88-6.96Q224-8.36 222.36-9.86Q220.72-11.36 220.72-14L220.72-14Q220.72-17 222.96-18.46Q225.20-19.92 229.76-19.92L229.76-19.92Q232.08-19.92 234.32-19.46Q236.56-19 237.80-18.40L237.80-18.40L237.32-13.60L236.64-13.60Q235.56-16.28 234.04-17.66Q232.52-19.04 229.64-19.04L229.64-19.04Q227.80-19.04 226.80-18.54Q225.80-18.04 225.80-16.72L225.80-16.72Q225.80-15.80 226.26-15.24Q226.72-14.68 227.70-14.20Q228.68-13.72 230.96-12.80L230.96-12.80Q234.24-11.48 235.92-10.52Q237.60-9.56 238.40-8.32Q239.20-7.08 239.20-5.20L239.20-5.20Q239.20-2.20 236.90-0.86Q234.60 0.48 230 0.48L230 0.48Q227.56 0.48 224.90 0.02Q222.24-0.44 220.92-1.04L220.92-1.04L221.48-6.48L222.16-6.48Q222.88-3.32 224.72-1.90Q226.56-0.48 229.52-0.48L229.52-0.48Z M251.76-0.48Q253.64-0.48 254.54-1.04Q255.44-1.60 255.44-3L255.44-3Q255.44-3.96 254.96-4.56Q254.48-5.16 253.44-5.64Q252.40-6.12 250.12-6.96L250.12-6.96Q246.24-8.36 244.60-9.86Q242.96-11.36 242.96-14L242.96-14Q242.96-17 245.20-18.46Q247.44-19.92 252.00-19.92L252.00-19.92Q254.32-19.92 256.56-19.46Q258.80-19 260.04-18.40L260.04-18.40L259.56-13.60L258.88-13.60Q257.80-16.28 256.28-17.66Q254.76-19.04 251.88-19.04L251.88-19.04Q250.04-19.04 249.04-18.54Q248.04-18.04 248.04-16.72L248.04-16.72Q248.04-15.80 248.50-15.24Q248.96-14.68 249.94-14.20Q250.92-13.72 253.20-12.80L253.20-12.80Q256.48-11.48 258.16-10.52Q259.84-9.56 260.64-8.32Q261.44-7.08 261.44-5.20L261.44-5.20Q261.44-2.20 259.14-0.86Q256.84 0.48 252.24 0.48L252.24 0.48Q249.80 0.48 247.14 0.02Q244.48-0.44 243.16-1.04L243.16-1.04L243.72-6.48L244.40-6.48Q245.12-3.32 246.96-1.90Q248.80-0.48 251.76-0.48L251.76-0.48Z M274.52-16.24Q278.00-19.80 281.60-19.80L281.60-19.80Q282.92-19.80 283.68-19.48L283.68-19.48L283.08-13.24L282.80-13.24L274.60-15.04L274.60-1.92Q274.60-1.48 274.78-1.30Q274.96-1.12 275.52-1L275.52-1L276.88-0.72L276.88 0L264.24 0L264.24-0.72L265.64-1.04Q266.24-1.16 266.42-1.32Q266.60-1.48 266.60-1.92L266.60-1.92L266.60-17.04Q266.60-17.48 266.42-17.64Q266.24-17.80 265.64-17.92L265.64-17.92L264.24-18.24L264.24-18.96L273.84-20.16L274.52-20.16L274.52-16.24Z M311.84-9.72Q311.84-4.56 308.62-2.04Q305.40 0.48 299.36 0.48L299.36 0.48Q293.32 0.48 290.10-2.04Q286.88-4.56 286.88-9.72L286.88-9.72Q286.88-14.88 290.10-17.40Q293.32-19.92 299.36-19.92L299.36-19.92Q305.40-19.92 308.62-17.40Q311.84-14.88 311.84-9.72L311.84-9.72ZM295.20-9.72Q295.20-6.16 295.54-4.24Q295.88-2.32 296.76-1.44Q297.64-0.56 299.36-0.56L299.36-0.56Q301.08-0.56 301.96-1.44Q302.84-2.32 303.18-4.24Q303.52-6.16 303.52-9.72L303.52-9.72Q303.52-13.28 303.18-15.20Q302.84-17.12 301.96-18Q301.08-18.88 299.36-18.88L299.36-18.88Q297.64-18.88 296.76-18Q295.88-17.12 295.54-15.20Q295.20-13.28 295.20-9.72L295.20-9.72Z M340.80-9.72Q340.80-4.56 337.58-2.04Q334.36 0.48 328.32 0.48L328.32 0.48Q322.28 0.48 319.06-2.04Q315.84-4.56 315.84-9.72L315.84-9.72Q315.84-14.88 319.06-17.40Q322.28-19.92 328.32-19.92L328.32-19.92Q334.36-19.92 337.58-17.40Q340.80-14.88 340.80-9.72L340.80-9.72ZM324.16-9.72Q324.16-6.16 324.50-4.24Q324.84-2.32 325.72-1.44Q326.60-0.56 328.32-0.56L328.32-0.56Q330.04-0.56 330.92-1.44Q331.80-2.32 332.14-4.24Q332.48-6.16 332.48-9.72L332.48-9.72Q332.48-13.28 332.14-15.20Q331.80-17.12 330.92-18Q330.04-18.88 328.32-18.88L328.32-18.88Q326.60-18.88 325.72-18Q324.84-17.12 324.50-15.20Q324.16-13.28 324.16-9.72L324.16-9.72Z M354.04-17.36Q355.56-18.44 357.60-19.18Q359.64-19.92 362.08-19.92L362.08-19.92Q367.04-19.92 368.40-16.96L368.40-16.96Q369.92-18.20 372.10-19.06Q374.28-19.92 376.96-19.92L376.96-19.92Q380.68-19.92 382.28-18.36Q383.88-16.80 383.88-13.68L383.88-13.68L383.88-1.92Q383.88-1.48 384.06-1.32Q384.24-1.16 384.84-1.04L384.84-1.04L386.24-0.72L386.24 0L377.92 0Q376.84 0 376.36-0.56Q375.88-1.12 375.88-2.24L375.88-2.24L375.88-14.40Q375.88-16.20 375.30-16.96Q374.72-17.72 373.36-17.72L373.36-17.72Q371.20-17.72 368.76-15.96L368.76-15.96Q369-14.96 369-13.68L369-13.68L369-1.92Q369-1.48 369.18-1.32Q369.36-1.16 369.96-1.04L369.96-1.04L371.36-0.72L371.36 0L363.04 0Q361.96 0 361.48-0.56Q361-1.12 361-2.24L361-2.24L361-14.40Q361-16.20 360.42-16.96Q359.84-17.72 358.48-17.72L358.48-17.72Q356.36-17.72 354.12-16.12L354.12-16.12L354.12-1.92Q354.12-1.48 354.30-1.30Q354.48-1.12 355.04-1L355.04-1L356.40-0.72L356.40 0L343.76 0L343.76-0.72L345.16-1.04Q345.76-1.16 345.94-1.32Q346.12-1.48 346.12-1.92L346.12-1.92L346.12-17.04Q346.12-17.48 345.94-17.64Q345.76-17.80 345.16-17.92L345.16-17.92L343.76-18.24L343.76-18.96L353.36-20.16L354.04-20.16L354.04-17.36Z M415.52 0L415.52-0.80L417.24-0.96Q417.80-1.04 417.80-1.40L417.80-1.40Q417.80-1.60 417.68-1.88L417.68-1.88L415.04-7.72L405.76-7.72L403.36-1.88Q403.24-1.60 403.24-1.40L403.24-1.40Q403.24-1.04 403.80-0.96L403.80-0.96L405.52-0.80L405.52 0L399.44 0L399.44-0.80L400.92-0.96Q401.40-1 401.60-1.20Q401.80-1.40 402.04-1.92L402.04-1.92L413.12-28.44L414.40-28.44L426.12-1.92Q426.36-1.40 426.56-1.20Q426.76-1 427.24-0.96L427.24-0.96L428.72-0.80L428.72 0L415.52 0ZM406.24-8.92L414.52-8.92L410.20-18.48L406.24-8.92Z M430.40 0L430.40-0.72L431.80-1.04Q432.40-1.16 432.58-1.32Q432.76-1.48 432.76-1.92L432.76-1.92L432.76-26.08Q432.76-26.52 432.58-26.68Q432.40-26.84 431.80-26.96L431.80-26.96L430.40-27.28L430.40-28L440.00-29.20L440.76-29.20L440.76-1.92Q440.76-1.48 440.94-1.32Q441.12-1.16 441.72-1.04L441.72-1.04L443.12-0.72L443.12 0L430.40 0Z M445.04 0L445.04-0.72L446.44-1.04Q447.04-1.16 447.22-1.32Q447.40-1.48 447.40-1.92L447.40-1.92L447.40-26.08Q447.40-26.52 447.22-26.68Q447.04-26.84 446.44-26.96L446.44-26.96L445.04-27.28L445.04-28L454.64-29.20L455.40-29.20L455.40-1.92Q455.40-1.48 455.58-1.32Q455.76-1.16 456.36-1.04L456.36-1.04L457.76-0.72L457.76 0L445.04 0Z M485.68-9.72Q485.68-4.56 482.46-2.04Q479.24 0.48 473.20 0.48L473.20 0.48Q467.16 0.48 463.94-2.04Q460.72-4.56 460.72-9.72L460.72-9.72Q460.72-14.88 463.94-17.40Q467.16-19.92 473.20-19.92L473.20-19.92Q479.24-19.92 482.46-17.40Q485.68-14.88 485.68-9.72L485.68-9.72ZM469.04-9.72Q469.04-6.16 469.38-4.24Q469.72-2.32 470.60-1.44Q471.48-0.56 473.20-0.56L473.20-0.56Q474.92-0.56 475.80-1.44Q476.68-2.32 477.02-4.24Q477.36-6.16 477.36-9.72L477.36-9.72Q477.36-13.28 477.02-15.20Q476.68-17.12 475.80-18Q474.92-18.88 473.20-18.88L473.20-18.88Q471.48-18.88 470.60-18Q469.72-17.12 469.38-15.20Q469.04-13.28 469.04-9.72L469.04-9.72Z M502.64-19.92Q507.64-19.92 510.84-18.32L510.84-18.32L510.36-13.08L509.60-13.08Q508.76-16.04 507.38-17.46Q506-18.88 503.36-18.88L503.36-18.88Q500.44-18.88 499.22-16.84Q498-14.80 498-10.80L498-10.80Q498-7.48 498.52-5.44Q499.04-3.40 500.40-2.34Q501.76-1.28 504.24-1.28L504.24-1.28Q506.12-1.28 507.68-1.82Q509.24-2.36 510.76-3.40L510.76-3.40L511.28-2.64Q509.40-1.20 507.06-0.36Q504.72 0.48 501.60 0.48L501.60 0.48Q495.96 0.48 492.82-2.12Q489.68-4.72 489.68-9.96L489.68-9.96Q489.68-14.92 492.96-17.42Q496.24-19.92 502.64-19.92L502.64-19.92Z M529.84 0Q528.72 0 528.26-0.46Q527.80-0.92 527.80-2L527.80-2L527.80-2.20Q525.12 0.40 520.16 0.40L520.16 0.40Q517.56 0.40 516.10-0.78Q514.64-1.96 514.64-4.44L514.64-4.44Q514.64-6.92 516.10-8.32Q517.56-9.72 520.36-10.32Q523.16-10.92 527.80-11.04L527.80-11.04L527.80-13.96Q527.80-16.20 526.92-17.18Q526.04-18.16 523.84-18.16L523.84-18.16Q522-18.16 520.42-17.66Q518.84-17.16 517.20-16.16L517.20-16.16L516.68-16.92Q518.60-18.28 521.30-19.10Q524-19.92 527.36-19.92L527.36-19.92Q531.88-19.92 533.80-18.14Q535.72-16.36 535.72-13L535.72-13L535.72-1.92Q535.72-1.48 535.90-1.32Q536.08-1.16 536.68-1.04L536.68-1.04L538.08-0.72L538.08 0L529.84 0ZM524.64-2.12Q526.36-2.12 527.80-3.48L527.80-3.48L527.80-9.96Q525.56-9.80 524.40-9.26Q523.24-8.72 522.82-7.72Q522.40-6.72 522.40-5L522.40-5Q522.40-3.48 522.94-2.80Q523.48-2.12 524.64-2.12L524.64-2.12Z M542.36-18.40L539.76-18.40L539.76-19.44Q541-19.44 541.60-19.64Q542.20-19.84 542.80-20.36L542.80-20.36L549.92-26.76L550.28-26.76L550.28-19.44L555.44-19.44L555.44-18.40L550.28-18.40L550.28-4.96Q550.28-3.04 550.74-2.26Q551.20-1.48 552.32-1.48L552.32-1.48Q553.20-1.48 553.88-1.84Q554.56-2.20 555.36-3.08L555.36-3.08L556-2.32Q553.48 0.48 548.56 0.48L548.56 0.48Q545.24 0.48 543.80-0.92Q542.36-2.32 542.36-5.28L542.36-5.28L542.36-18.40Z M564.12-22.48Q562.24-22.48 561.12-23.34Q560-24.20 560-25.84L560-25.84Q560-27.48 561.12-28.34Q562.24-29.20 564.12-29.20L564.12-29.20Q566-29.20 567.12-28.34Q568.24-27.48 568.24-25.84L568.24-25.84Q568.24-24.20 567.12-23.34Q566-22.48 564.12-22.48L564.12-22.48ZM557.76 0L557.76-0.72L559.16-1.04Q559.76-1.16 559.94-1.32Q560.12-1.48 560.12-1.92L560.12-1.92L560.12-17.04Q560.12-17.48 559.94-17.64Q559.76-17.80 559.16-17.92L559.16-17.92L557.76-18.24L557.76-18.96L567.36-20.16L568.12-20.16L568.12-1.92Q568.12-1.48 568.30-1.32Q568.48-1.16 569.08-1.04L569.08-1.04L570.48-0.72L570.48 0L557.76 0Z M598.48-9.72Q598.48-4.56 595.26-2.04Q592.04 0.48 586 0.48L586 0.48Q579.96 0.48 576.74-2.04Q573.52-4.56 573.52-9.72L573.52-9.72Q573.52-14.88 576.74-17.40Q579.96-19.92 586-19.92L586-19.92Q592.04-19.92 595.26-17.40Q598.48-14.88 598.48-9.72L598.48-9.72ZM581.84-9.72Q581.84-6.16 582.18-4.24Q582.52-2.32 583.40-1.44Q584.28-0.56 586-0.56L586-0.56Q587.72-0.56 588.60-1.44Q589.48-2.32 589.82-4.24Q590.16-6.16 590.16-9.72L590.16-9.72Q590.16-13.28 589.82-15.20Q589.48-17.12 588.60-18Q587.72-18.88 586-18.88L586-18.88Q584.28-18.88 583.40-18Q582.52-17.12 582.18-15.20Q581.84-13.28 581.84-9.72L581.84-9.72Z M627.24-1.92Q627.24-1.48 627.42-1.32Q627.60-1.16 628.20-1.04L628.20-1.04L629.60-0.72L629.60 0L621.28 0Q620.20 0 619.72-0.56Q619.24-1.12 619.24-2.24L619.24-2.24L619.24-14.40Q619.24-16.20 618.66-16.96Q618.08-17.72 616.72-17.72L616.72-17.72Q614.32-17.72 611.80-15.72L611.80-15.72L611.80-1.92Q611.80-1.48 611.98-1.30Q612.16-1.12 612.72-1L612.72-1L614.08-0.72L614.08 0L601.44 0L601.44-0.72L602.84-1.04Q603.44-1.16 603.62-1.32Q603.80-1.48 603.80-1.92L603.80-1.92L603.80-17.04Q603.80-17.48 603.62-17.64Q603.44-17.80 602.84-17.92L602.84-17.92L601.44-18.24L601.44-18.96L611.04-20.16L611.72-20.16L611.72-16.92Q613.24-18.16 615.44-19.04Q617.64-19.92 620.32-19.92L620.32-19.92Q624.04-19.92 625.64-18.36Q627.24-16.80 627.24-13.68L627.24-13.68L627.24-1.92Z M654.68-0.60Q657.28-0.60 658.72-1.60Q660.16-2.60 660.16-4.48L660.16-4.48Q660.16-6 659.50-7Q658.84-8 657.48-8.84Q656.12-9.68 653.48-10.84L653.48-10.84Q650.12-12.32 648.28-13.46Q646.44-14.60 645.38-16.34Q644.32-18.08 644.32-20.76L644.32-20.76Q644.32-24.60 647.04-26.54Q649.76-28.48 655.68-28.48L655.68-28.48Q658.32-28.48 660.78-27.96Q663.24-27.44 664.92-26.64L664.92-26.64L663.96-20.52L662.88-20.52Q662.12-22.96 661.30-24.40Q660.48-25.84 659.08-26.62Q657.68-27.40 655.36-27.40L655.36-27.40Q650.08-27.40 650.08-23.96L650.08-23.96Q650.08-22.56 650.72-21.64Q651.36-20.72 652.64-19.98Q653.92-19.24 656.88-17.80L656.88-17.80L657.68-17.44Q661.40-15.64 663.18-14.52Q664.96-13.40 666-11.74Q667.04-10.08 667.04-7.44L667.04-7.44Q667.04-3.52 664.10-1.52Q661.16 0.48 654.88 0.48L654.88 0.48Q652.36 0.48 649.30-0.08Q646.24-0.64 644.56-1.44L644.56-1.44L645.64-8.48L646.68-8.48Q647.20-5.36 648.24-3.64Q649.28-1.92 650.84-1.26Q652.40-0.60 654.68-0.60L654.68-0.60Z M681.92-18.84L680.88-18.60Q679.96-18.40 679.96-17.84L679.96-17.84Q679.96-17.60 680.16-17.20L680.16-17.20L684.80-7.88L689.16-18.04Q689.28-18.28 689.28-18.44L689.28-18.44Q689.28-18.68 688.76-18.72L688.76-18.72L687.72-18.84L687.72-19.44L692.32-19.44L692.32-18.84L691.28-18.68Q690.80-18.60 690.60-18.48Q690.40-18.36 690.20-17.92L690.20-17.92L682.40 0Q680.80 3.72 679.78 5.46Q678.76 7.20 677.50 8.14Q676.24 9.08 674.12 9.60L674.12 9.60L671.96 3.52Q674.68 3.40 677.12 2.62Q679.56 1.84 681.32 0.64L681.32 0.64L671.68-17.76Q671.48-18.12 671.22-18.28Q670.96-18.44 670.56-18.52L670.56-18.52L669.36-18.84L669.36-19.44L681.92-19.44L681.92-18.84Z M703.20-0.48Q705.08-0.48 705.98-1.04Q706.88-1.60 706.88-3L706.88-3Q706.88-3.96 706.40-4.56Q705.92-5.16 704.88-5.64Q703.84-6.12 701.56-6.96L701.56-6.96Q697.68-8.36 696.04-9.86Q694.40-11.36 694.40-14L694.40-14Q694.40-17 696.64-18.46Q698.88-19.92 703.44-19.92L703.44-19.92Q705.76-19.92 708-19.46Q710.24-19 711.48-18.40L711.48-18.40L711-13.60L710.32-13.60Q709.24-16.28 707.72-17.66Q706.20-19.04 703.32-19.04L703.32-19.04Q701.48-19.04 700.48-18.54Q699.48-18.04 699.48-16.72L699.48-16.72Q699.48-15.80 699.94-15.24Q700.40-14.68 701.38-14.20Q702.36-13.72 704.64-12.80L704.64-12.80Q707.92-11.48 709.60-10.52Q711.28-9.56 712.08-8.32Q712.88-7.08 712.88-5.20L712.88-5.20Q712.88-2.20 710.58-0.86Q708.28 0.48 703.68 0.48L703.68 0.48Q701.24 0.48 698.58 0.02Q695.92-0.44 694.60-1.04L694.60-1.04L695.16-6.48L695.84-6.48Q696.56-3.32 698.40-1.90Q700.24-0.48 703.20-0.48L703.20-0.48Z M718.20-18.40L715.60-18.40L715.60-19.44Q716.84-19.44 717.44-19.64Q718.04-19.84 718.64-20.36L718.64-20.36L725.76-26.76L726.12-26.76L726.12-19.44L731.28-19.44L731.28-18.40L726.12-18.40L726.12-4.96Q726.12-3.04 726.58-2.26Q727.04-1.48 728.16-1.48L728.16-1.48Q729.04-1.48 729.72-1.84Q730.40-2.20 731.20-3.08L731.20-3.08L731.84-2.32Q729.32 0.48 724.40 0.48L724.40 0.48Q721.08 0.48 719.64-0.92Q718.20-2.32 718.20-5.28L718.20-5.28L718.20-18.40Z M742.80-10.24Q742.84-5.80 744.22-3.48Q745.60-1.16 749.40-1.16L749.40-1.16Q751.28-1.16 752.74-1.72Q754.20-2.28 755.76-3.32L755.76-3.32L756.28-2.56Q752.56 0.48 746.44 0.48L746.44 0.48Q740.92 0.48 737.74-2.18Q734.56-4.84 734.56-9.96L734.56-9.96Q734.56-14.80 737.80-17.36Q741.04-19.92 746.88-19.92L746.88-19.92Q750.20-19.92 752.48-18.88Q754.76-17.84 755.86-16.10Q756.96-14.36 756.96-12.24L756.96-12.24Q756.96-11.16 756.76-10.24L756.76-10.24L742.80-10.24ZM746.64-18.96Q744.44-18.96 743.64-17.12Q742.84-15.28 742.80-11.28L742.80-11.28L749.52-11.28L749.52-14.28Q749.52-16.72 748.94-17.84Q748.36-18.96 746.64-18.96L746.64-18.96Z M770.12-17.36Q771.64-18.44 773.68-19.18Q775.72-19.92 778.16-19.92L778.16-19.92Q783.12-19.92 784.48-16.96L784.48-16.96Q786.00-18.20 788.18-19.06Q790.36-19.92 793.04-19.92L793.04-19.92Q796.76-19.92 798.36-18.36Q799.96-16.80 799.96-13.68L799.96-13.68L799.96-1.92Q799.96-1.48 800.14-1.32Q800.32-1.16 800.92-1.04L800.92-1.04L802.32-0.72L802.32 0L794.00 0Q792.92 0 792.44-0.56Q791.96-1.12 791.96-2.24L791.96-2.24L791.96-14.40Q791.96-16.20 791.38-16.96Q790.80-17.72 789.44-17.72L789.44-17.72Q787.28-17.72 784.84-15.96L784.84-15.96Q785.08-14.96 785.08-13.68L785.08-13.68L785.08-1.92Q785.08-1.48 785.26-1.32Q785.44-1.16 786.04-1.04L786.04-1.04L787.44-0.72L787.44 0L779.12 0Q778.04 0 777.56-0.56Q777.08-1.12 777.08-2.24L777.08-2.24L777.08-14.40Q777.08-16.20 776.50-16.96Q775.92-17.72 774.56-17.72L774.56-17.72Q772.44-17.72 770.20-16.12L770.20-16.12L770.20-1.92Q770.20-1.48 770.38-1.30Q770.56-1.12 771.12-1L771.12-1L772.48-0.72L772.48 0L759.84 0L759.84-0.72L761.24-1.04Q761.84-1.16 762.02-1.32Q762.20-1.48 762.20-1.92L762.20-1.92L762.20-17.04Q762.20-17.48 762.02-17.64Q761.84-17.80 761.24-17.92L761.24-17.92L759.84-18.24L759.84-18.96L769.44-20.16L770.12-20.16L770.12-17.36Z"/></g>
</svg>
</g><g opacity="1" transform="rotate(0 158.326 -99.9687)">
<svg width="247.4491" height="216.5179" x="158.326" y="-99.9687" version="1.1" preserveAspectRatio="none" viewBox="19.999996185302734 30 160.00001525878906 140">
  <g transform="matrix(1 0 0 1 0 0)"><g><path d="M64.444 47.818A3.814 3.814 0 0 1 60.634 44c0-7.719 6.266-14 13.968-14 2.104 0 3.81 1.709 3.81 3.818s-1.705 3.818-3.81 3.818c-3.501 0-6.349 2.855-6.349 6.364a3.812 3.812 0 0 1-3.809 3.818z" data-color="1" class="icon1"></path><path d="M135.556 47.818a3.814 3.814 0 0 1-3.81-3.818c0-3.509-2.848-6.364-6.349-6.364-2.104 0-3.81-1.709-3.81-3.818S123.293 30 125.397 30c7.702 0 13.968 6.281 13.968 14a3.813 3.813 0 0 1-3.809 3.818z" data-color="1" class="icon1"></path><path d="M74.603 88.546c-7.702 0-13.968-6.281-13.968-14a3.813 3.813 0 0 1 3.81-3.818 3.814 3.814 0 0 1 3.81 3.818c0 3.509 2.848 6.364 6.349 6.364a3.814 3.814 0 0 1 3.81 3.818 3.816 3.816 0 0 1-3.811 3.818z" data-color="1" class="icon1"></path><path d="M125.397 88.546a3.814 3.814 0 0 1-3.81-3.818 3.813 3.813 0 0 1 3.81-3.818c3.501 0 6.349-2.855 6.349-6.364 0-2.109 1.705-3.818 3.81-3.818s3.81 1.709 3.81 3.818c-.001 7.719-6.267 14-13.969 14z" data-color="1" class="icon1"></path><path d="M64.444 78.364a3.814 3.814 0 0 1-3.81-3.818V44a3.813 3.813 0 0 1 3.81-3.818A3.814 3.814 0 0 1 68.254 44v30.546a3.813 3.813 0 0 1-3.81 3.818z" data-color="1" class="icon1"></path><path d="M135.556 78.364a3.814 3.814 0 0 1-3.81-3.818V44c0-2.109 1.705-3.818 3.81-3.818s3.81 1.709 3.81 3.818v30.546a3.815 3.815 0 0 1-3.81 3.818z" data-color="1" class="icon1"></path><path d="M125.397 88.546H74.603a3.814 3.814 0 0 1-3.81-3.818 3.813 3.813 0 0 1 3.81-3.818h50.794a3.814 3.814 0 0 1 3.81 3.818 3.815 3.815 0 0 1-3.81 3.818z" data-color="1" class="icon1"></path><path d="M125.397 37.636H74.603c-2.104 0-3.81-1.709-3.81-3.818S72.499 30 74.603 30h50.794c2.104 0 3.81 1.709 3.81 3.818s-1.706 3.818-3.81 3.818z" data-color="1" class="icon1"></path><path d="M176.19 108.909H23.81a3.814 3.814 0 0 1-3.81-3.818 3.813 3.813 0 0 1 3.81-3.818h152.38a3.814 3.814 0 0 1 3.81 3.818 3.813 3.813 0 0 1-3.81 3.818z" data-color="1" class="icon1"></path><path d="M100 108.909a3.814 3.814 0 0 1-3.81-3.818V84.727c0-2.109 1.705-3.818 3.81-3.818s3.81 1.709 3.81 3.818v20.364a3.814 3.814 0 0 1-3.81 3.818z" data-color="1" class="icon1"></path><path d="M33.968 170a3.814 3.814 0 0 1-3.81-3.818v-61.091c0-2.109 1.705-3.818 3.81-3.818s3.81 1.709 3.81 3.818v61.091a3.814 3.814 0 0 1-3.81 3.818z" data-color="1" class="icon1"></path><path d="M166.032 170a3.814 3.814 0 0 1-3.81-3.818v-61.091a3.813 3.813 0 0 1 3.81-3.818 3.814 3.814 0 0 1 3.81 3.818v61.091a3.815 3.815 0 0 1-3.81 3.818z" data-color="1" class="icon1"></path><path d="M125.397 129.273H33.968a3.814 3.814 0 0 1-3.81-3.818 3.813 3.813 0 0 1 3.81-3.818h91.429a3.814 3.814 0 0 1 3.81 3.818 3.815 3.815 0 0 1-3.81 3.818z" data-color="1" class="icon1"></path><path d="M125.397 170a3.814 3.814 0 0 1-3.81-3.818v-61.091a3.813 3.813 0 0 1 3.81-3.818 3.814 3.814 0 0 1 3.81 3.818v61.091a3.815 3.815 0 0 1-3.81 3.818z" data-color="1" class="icon1"></path><path d="M166.032 170h-40.635a3.814 3.814 0 0 1-3.81-3.818 3.813 3.813 0 0 1 3.81-3.818h40.635a3.814 3.814 0 0 1 3.81 3.818 3.815 3.815 0 0 1-3.81 3.818z" data-color="1" class="icon1"></path></g></g>
</svg>
</g></svg></svg>